<svg width="158" height="23" viewBox="0 0 158 23" fill="none" xmlns="http://www.w3.org/2000/svg">
<path d="M104.257 1.79998C104.483 1.82878 104.771 2.49598 104.707 2.82838C104.515 4.34158 103.069 5.40118 101.464 5.31118L100.339 5.21998C100.372 5.21998 100.372 5.18998 100.372 5.15998C98.8947 5.33998 97.3839 5.49238 95.9079 5.73478C94.4307 5.97718 93.9807 6.82438 94.3335 8.27758C94.5903 9.36718 95.3931 9.79078 96.7743 9.48958C98.0271 9.21598 99.2475 8.85358 100.468 8.60998C100.95 8.51998 101.817 8.57998 101.945 8.82238C102.234 9.42838 102.395 10.2144 102.234 10.8816C102.171 11.214 101.368 11.6076 100.885 11.6676C99.5691 11.82 98.1879 11.82 96.8715 11.88C95.2011 11.9712 94.6551 12.636 95.0715 14.1804C95.3931 15.3012 95.7795 16.4208 96.1635 17.5116C96.6147 18.7836 97.5459 19.2972 99.0231 19.176C100.499 19.056 101.977 18.9648 103.422 18.7824C105.286 18.5712 105.991 19.146 105.832 20.9628C105.703 22.446 105.189 22.9608 103.679 22.8696C102.261 22.7787 100.853 22.566 99.4719 22.2336C97.0635 21.6888 94.7199 20.9928 92.3103 20.3868C91.3467 20.1444 91.2183 19.5708 91.3467 18.7524C91.5387 17.6316 91.6683 16.512 91.9251 15.4224C92.1495 14.3628 92.1819 13.4544 91.1859 12.6072C90.5439 12.0312 91.2183 11.4864 91.6359 11.0928C93.1131 9.70078 93.0819 7.97518 91.5075 6.73318C90.5439 6.00718 90.6399 5.43118 91.7319 4.94758C94.1079 3.85798 96.4851 2.70718 98.8947 1.61758C100.692 0.800381 102.491 1.46638 104.259 1.79878L104.257 1.79998ZM14.3715 1.62958C14.7699 2.36158 13.8735 2.75758 13.2111 3.06238C12.1155 3.61078 11.0211 4.13038 9.99268 4.73878C8.20108 5.80678 6.44308 6.84238 5.31508 8.64118C3.98908 10.776 3.29188 12.9408 3.95548 15.3792C4.02148 15.624 4.05508 15.8676 4.22068 16.0812C5.91268 18.5196 8.03668 20.3796 11.3523 20.6532C12.5475 20.7456 13.7403 20.898 14.9019 21.0804C15.2343 21.1416 15.8307 21.5376 15.7983 21.66C15.6987 22.026 15.3999 22.4832 15.0351 22.6356C14.6367 22.8492 14.0391 22.8192 13.7079 22.8792C8.10148 22.5432 3.82228 20.3796 1.06948 16.0812C0.073481 14.5872 -0.257719 12.9096 0.206681 10.9584C0.969881 7.75798 2.79388 5.19598 4.98268 2.81878C5.67988 2.05678 6.60868 1.65958 7.83628 1.69078C9.36268 1.72078 10.8879 1.32478 12.4143 1.23358C13.0779 1.20238 14.2059 1.26358 14.3715 1.62958ZM74.2311 1.22638C74.4975 1.90438 74.7639 2.39638 74.8311 2.88958C75.0975 5.32198 75.2967 7.78558 75.4635 10.2192C75.4971 10.8048 75.6963 10.9896 76.3635 11.0508C78.0603 11.1432 79.7919 11.2356 81.4575 11.5752C82.5231 11.7912 82.7895 11.4516 82.8231 10.62C82.8891 8.64838 82.8891 6.64798 83.0559 4.67518C83.1219 3.59758 83.4219 2.55118 83.6223 1.47238H84.2547C84.3879 2.02678 84.5547 2.55118 84.6207 3.10438C84.8871 5.96878 85.0875 8.83318 85.3203 11.6052C86.1531 11.9136 86.9187 12.1908 87.6843 12.468V12.8688C87.0183 13.0848 86.3859 13.2684 85.5531 13.5156C85.6539 14.6244 85.8531 15.8256 85.8867 17.0268C85.9203 18.474 85.8867 19.9212 85.7871 21.3384C85.7199 22.2924 85.0875 22.8468 84.0555 22.878C82.9227 22.9092 82.3563 22.446 82.3227 21.2772C82.2567 19.0896 82.3227 16.9032 82.3227 14.7468V13.7616C80.2923 14.0388 78.2943 14.316 76.4295 14.5932V19.2744C76.4295 19.86 76.4295 20.4456 76.3623 21C76.1631 22.3236 75.4623 22.878 74.1303 22.848C72.6663 22.8168 72.1659 22.3848 72.0003 20.9376C71.7003 17.7336 72.0327 14.562 72.4995 11.3904C72.8655 9.08038 72.8655 6.70798 73.0323 4.36798C73.0659 3.38278 73.0323 2.30398 74.2311 1.22638ZM63.3507 0.47998C64.2423 0.63478 65.1339 0.72718 65.9619 0.943181C66.2487 1.00558 66.6939 1.43878 66.6303 1.59358C66.5343 1.93318 66.2487 2.27398 65.9307 2.45878C65.4531 2.70718 64.8795 2.79958 64.3383 2.95438C59.3079 4.37638 56.8563 7.68598 56.4423 12.4812C56.0919 16.2228 60.1035 20.4612 63.5103 20.6772C64.6563 20.7396 65.8023 20.8932 66.9171 21.1104C67.2675 21.1728 67.5855 21.5124 67.9371 21.7296C67.6815 22.0692 67.4271 22.7184 67.1403 22.7496C65.9943 22.8732 64.8159 22.9656 63.7011 22.7496C59.4663 21.9456 56.1243 19.7496 53.8635 16.1304C52.8123 14.4288 52.8123 12.4812 53.0667 10.6248C53.4171 8.21278 54.3411 5.92318 56.0607 4.09798C57.3015 2.73718 58.7343 1.46998 60.6447 0.97438C61.4727 0.69598 62.4279 0.63598 63.3507 0.47998ZM151.863 3.31798C152.563 5.17817 153.244 7.04547 153.906 8.91958C154.417 10.374 154.833 11.8596 155.344 13.314C155.44 13.5924 155.663 13.902 155.919 14.0568C156.493 14.3964 156.845 14.706 156.303 15.3252C156.233 15.4467 156.21 15.5898 156.238 15.7272C156.493 17.1504 156.749 18.5748 157.036 19.998C157.068 20.214 157.228 20.43 157.197 20.6172C157.036 21.1428 156.781 21.6372 156.589 22.1328C156.238 21.8232 155.759 21.576 155.567 21.204C154.761 19.7137 154.004 18.1968 153.299 16.656C153.012 16.0056 152.885 15.6036 151.895 15.7272C150.617 15.9132 149.308 15.696 147.999 15.6348C145.986 15.5412 144.55 16.1916 143.783 18.1716C143.431 19.1316 142.729 19.998 142.091 20.8332C141.899 21.0804 141.292 21.2976 141.1 21.174C140.812 20.988 140.557 20.4624 140.621 20.1828C140.973 18.8532 141.515 17.5836 141.899 16.2528C142.695 13.445 143.462 10.6288 144.198 7.80478C144.55 6.47518 144.677 5.11318 145.667 3.99958C146.88 2.69878 148.381 2.14198 150.457 1.98718C151.161 1.86358 151.576 2.54398 151.863 3.31918V3.31798ZM111.934 1.22638C112.153 1.43998 112.499 1.62238 112.563 1.89838C112.815 3.23998 113.003 4.58278 113.16 5.92558C113.506 8.97598 113.789 12.0276 114.135 15.0792C114.197 15.5976 114.354 16.116 114.511 16.6344C114.983 17.9784 116.335 18.5568 117.719 18.0384C118.191 17.856 118.693 17.6424 119.197 17.6424C120.013 17.6424 120.581 18.0084 120.581 18.954C120.581 19.656 120.706 20.358 120.833 21.0588C120.989 21.7608 120.549 22.188 119.291 22.1268C118.819 22.0056 118.065 21.6996 117.279 21.5472C115.235 21.1812 113.16 20.8752 111.117 20.5404C110.329 20.388 109.545 20.2044 108.757 19.9608C108.538 19.9008 108.223 19.5948 108.223 19.4112C108.223 19.2288 108.507 18.954 108.727 18.8316C109.198 18.5568 109.984 18.4356 110.172 18.0396C110.519 17.3064 110.676 16.4208 110.707 15.5676C110.802 13.218 110.77 10.8996 110.833 8.54878C110.865 7.11478 110.865 5.68078 110.927 4.24678C110.959 3.42358 111.117 2.63038 111.305 1.83598C111.367 1.59238 111.713 1.40878 111.934 1.22638ZM128.596 1.22638C128.814 1.25638 129.187 1.59238 129.22 1.83718C129.437 2.96518 129.593 4.09558 129.688 5.22478C130.03 8.73478 130.342 12.2448 130.684 15.7536C130.872 17.4936 131.433 17.9208 133.615 18.0432C134.333 18.0732 135.081 18.0732 135.736 18.2868C136.795 18.5928 137.763 20.5764 137.357 21.5532C137.232 21.828 136.671 22.1328 136.329 22.1328C132.712 22.0728 129.312 21.0336 125.883 20.088C125.851 20.028 125.789 19.9356 125.602 19.7832C125.789 19.4472 125.883 19.0512 126.132 18.8064C127.348 17.6772 127.536 16.1508 127.597 14.6544C127.691 10.962 127.629 7.23838 127.629 3.54598C127.629 2.93518 127.753 2.32558 127.941 1.77598C128.003 1.53118 128.377 1.22638 128.596 1.22638ZM43.8579 3.52558C44.7931 6.03058 45.6808 8.55303 46.5207 11.0916C46.9371 12.3636 47.0331 13.7268 48.2199 14.658C47.7075 15.774 48.5415 16.7664 48.6051 17.8512C48.6375 18.6888 48.8619 19.4952 48.9579 20.3004C48.9903 20.6724 48.9903 21.1068 48.8943 21.4788C48.8295 21.7584 48.5415 22.0992 48.3159 22.1304C48.0603 22.1616 47.6751 21.9132 47.5467 21.6648L46.8579 20.3352C46.2867 19.224 45.7371 18.1032 45.3015 16.9512C44.9163 15.9912 44.6595 15.5568 43.4415 15.774C41.3559 16.1772 39.2055 16.2696 37.0899 16.6116C36.6723 16.6728 36.2235 17.1996 35.9667 17.6028C35.3247 18.5952 34.8123 19.7112 34.1379 20.6724C33.9135 20.9832 33.2403 21.2928 32.9199 21.2004C32.2779 21.0144 32.3103 20.4564 32.5347 19.836C33.1443 18.1608 33.7851 16.488 34.2663 14.7816C34.9719 12.3324 35.4855 9.82078 36.1587 7.34038C36.4479 6.25438 36.7047 5.16838 37.2183 4.14598C38.0835 2.28598 39.9447 2.00638 41.9007 2.00638C43.1523 1.79038 43.5375 2.65798 43.8567 3.52558H43.8579ZM27.8691 2.95558C28.6767 3.13678 29.4831 4.07638 29.8707 4.83358C31.0323 7.10518 31.8711 9.49798 31.5159 12.1032C31.1607 14.6784 29.9991 16.86 27.9987 18.5868C26.5791 19.7988 24.7071 19.9188 22.8675 19.8888C20.8671 19.8888 19.5771 18.9504 18.4155 17.4348C15.5427 13.5876 16.3815 8.37718 18.7059 5.07478C18.7371 5.01478 18.8979 5.01478 19.3179 4.86358C19.1895 5.59078 19.0923 6.16678 18.9639 6.74158C18.3831 9.07438 18.2859 11.3772 19.8027 13.4976C21.0927 15.3456 23.6751 15.8904 25.6755 14.7396C27.7083 13.5576 28.8051 11.346 28.3863 9.13558C28.1919 8.16598 28.0311 7.16638 27.6435 6.25678C26.7723 4.28878 24.5139 3.65278 22.5771 4.74238C22.1907 4.89358 21.8031 5.04598 21.4155 5.22718C21.2223 4.22758 22.3515 2.86318 23.4807 2.80318C24.9327 2.71318 26.4819 2.62198 27.8691 2.95558ZM40.2327 10.3164C39.5919 11.0604 39.1107 11.898 38.4687 12.8904C40.3935 13.2 42.0927 13.4484 44.0823 13.758C43.3119 12.486 42.7347 11.4024 42.0303 10.41C41.5479 9.75838 40.7787 9.63478 40.2327 10.3164ZM148.158 8.76478C147.647 10.1256 147.199 11.4888 146.689 12.942C148.51 13.1892 150.202 13.4376 152.278 13.746C151.32 11.8284 150.586 10.158 149.691 8.54758C149.244 7.74358 148.477 7.89838 148.158 8.76358V8.76478Z" fill="#EFFCF8"/>
</svg>
